#N canvas 441 79 869 648 10;
#X declare -stdpath moonlib;
#X declare -stdpath hcs;
#X declare -stdpath ggee;
#X declare -stdpath zexy;
#X declare -lib zexy;
#X declare -stdpath Fraise;
#X obj 21 38 pied/pied 0 41424;
#X obj 21 17 declare -stdpath Fraise;
#N canvas 119 189 698 309 dimmers 0;
#X obj 54 132 vsl 15 128 0 1 0 0 dimmer1 dimmer1 1 0 -9 0 10 -257985
-1 -1 0 1;
#X obj 70 132 vsl 15 128 0 1 0 0 dimmer2 dimmer2 2 0 -9 0 10 -257985
-1 -1 0 1;
#X obj 86 132 vsl 15 128 0 1 0 0 dimmer3 dimmer3 3 0 -9 0 10 -257985
-1 -1 0 1;
#X obj 102 132 vsl 15 128 0 1 0 0 dimmer4 dimmer4 4 0 -9 0 10 -257985
-1 -1 0 1;
#X obj 199 106 r dimmer1;
#X obj 199 128 * 65535;
#X msg 199 151 0 \$1;
#X obj 267 128 * 65535;
#X obj 335 128 * 65535;
#X obj 403 128 * 65535;
#X obj 267 106 r dimmer2;
#X msg 267 151 1 \$1;
#X msg 335 151 2 \$1;
#X obj 335 106 r dimmer3;
#X msg 402 151 3 \$1;
#X obj 403 106 r dimmer4;
#X obj 276 205 outlet;
#X obj 118 132 vsl 15 128 0 1 0 0 dimmer5 dimmer5 5 0 -9 0 10 -257985
-1 -1 0 1;
#X obj 134 132 vsl 15 128 0 1 0 0 dimmer6 dimmer6 6 0 -9 0 10 -257985
-1 -1 0 1;
#X obj 468 128 * 65535;
#X obj 529 128 * 65535;
#X obj 468 106 r dimmer5;
#X obj 529 106 r dimmer6;
#X msg 468 151 4 \$1;
#X msg 529 151 5 \$1;
#X obj 593 129 * 65535;
#X obj 593 107 r dimmer7;
#X msg 593 152 6 \$1;
#X obj 150 132 vsl 15 128 0 1 0 0 dimmer7 dimmer7 7 0 -9 0 10 -257985
-1 -1 0 1;
#X obj 260 10 r conduite-RESET;
#X msg 263 33 0;
#X obj 199 83 s dimmer1;
#X obj 267 83 s dimmer2;
#X obj 335 83 s dimmer3;
#X obj 403 83 s dimmer4;
#X obj 468 83 s dimmer5;
#X obj 529 83 s dimmer6;
#X obj 593 84 s dimmer7;
#X connect 4 0 5 0;
#X connect 5 0 6 0;
#X connect 6 0 16 0;
#X connect 7 0 11 0;
#X connect 8 0 12 0;
#X connect 9 0 14 0;
#X connect 10 0 7 0;
#X connect 11 0 16 0;
#X connect 12 0 16 0;
#X connect 13 0 8 0;
#X connect 14 0 16 0;
#X connect 15 0 9 0;
#X connect 19 0 23 0;
#X connect 20 0 24 0;
#X connect 21 0 19 0;
#X connect 22 0 20 0;
#X connect 23 0 16 0;
#X connect 24 0 16 0;
#X connect 25 0 27 0;
#X connect 26 0 25 0;
#X connect 27 0 16 0;
#X connect 29 0 30 0;
#X connect 30 0 31 0;
#X connect 30 0 32 0;
#X connect 30 0 33 0;
#X connect 30 0 34 0;
#X connect 30 0 35 0;
#X connect 30 0 36 0;
#X connect 30 0 37 0;
#X coords 0 -1 1 1 125 165 1 50 100;
#X restore 254 42 pd dimmers;
#X msg 254 216 c 40 c \$1 i \$2;
#X obj 22 229 route s;
#X obj 22 251 route 0;
#X obj 22 279 tgl 15 0 empty empty empty 17 7 0 10 -262144 -1 -1 0
1;
#X obj 19 141 fruit/fruit 1 grada6 11 grada6;
#X obj 22 207 fruit/receive grada6;
#X obj 23 333 fruit/fruit 1 bureau 12 bureau;
#X msg 390 217 L\$1;
#X obj 390 196 tgl 15 0 empty empty empty 17 7 0 10 -262144 -1 -1 0
1;
#X obj 23 410 route s;
#X obj 23 432 route 0;
#X obj 23 460 tgl 15 0 empty empty empty 17 7 0 10 -262144 -1 -1 0
1;
#X obj 23 388 fruit/receive bureau;
#X obj 475 150 seq/main conduite;
#X floatatom 531 179 5 0 0 3 mn - -, f 5;
#X floatatom 587 177 5 0 0 3 sec - -, f 5;
#X floatatom 645 178 5 0 0 3 frame - -, f 5;
#X obj 451 127 bng 15 250 50 0 empty empty go 17 7 0 10 -4034 -1 -1
;
#X obj 494 126 bng 15 250 50 0 empty empty stop 17 7 0 10 -258113 -1
-1;
#X floatatom 458 177 5 0 0 3 line - -, f 5;
#X obj 542 125 bng 15 250 50 0 empty empty next 17 7 0 10 -257985 -1
-1;
#X obj 31 575 omxplayer;
#X obj 26 552 r film-play;
#N canvas 16 359 450 383 dimmers-assign 1;
#X obj 68 50 s dimmer1;
#X obj 67 94 s dimmer2;
#X obj 68 140 s dimmer3;
#X obj 67 184 s dimmer4;
#X obj 279 28 r ramp-lumiere_bureau;
#X obj 279 50 s bdimmer1;
#X obj 68 28 r ramp-lumiere_plante_1;
#X obj 67 72 r ramp-lumiere_plante_2;
#X obj 68 118 r ramp-lumiere_plante_3;
#X obj 66 162 r ramp-lumiere_plante_4;
#X obj 67 213 r ramp-lumiere_plante_5;
#X obj 67 235 s dimmer5;
#X obj 67 282 s dimmer6;
#X obj 69 336 s dimmer7;
#X obj 69 314 r ramp-sapin;
#X obj 67 260 r ramp-guirlande;
#X obj 280 99 s led_maquette;
#X obj 280 77 r ramp-maquette;
#X connect 4 0 5 0;
#X connect 6 0 0 0;
#X connect 7 0 1 0;
#X connect 8 0 2 0;
#X connect 9 0 3 0;
#X connect 10 0 11 0;
#X connect 14 0 13 0;
#X connect 15 0 12 0;
#X connect 17 0 16 0;
#X restore 27 498 pd dimmers-assign;
#X msg 227 482 c 40 c \$1 i \$2;
#N canvas 119 190 698 309 bureau_dimmers 0;
#X obj 54 132 vsl 15 128 0 1 0 0 bdimmer1 bdimmer1 1 0 -9 0 10 -257985
-1 -1 12700 1;
#X obj 70 132 vsl 15 128 0 1 0 0 bdimmer2 bdimmer2 2 0 -9 0 10 -257985
-1 -1 0 1;
#X obj 238 135 * 65535;
#X msg 238 158 0 \$1;
#X obj 306 135 * 65535;
#X msg 306 158 1 \$1;
#X obj 276 205 outlet;
#X obj 238 113 r bdimmer1;
#X obj 306 113 r bdimmer2;
#X obj 260 10 r conduite-RESET;
#X msg 263 33 0;
#X obj 199 83 s bdimmer1;
#X obj 289 85 s bdimmer2;
#X connect 2 0 3 0;
#X connect 3 0 6 0;
#X connect 4 0 5 0;
#X connect 5 0 6 0;
#X connect 7 0 2 0;
#X connect 8 0 4 0;
#X connect 9 0 10 0;
#X connect 10 0 11 0;
#X connect 10 0 12 0;
#X coords 0 -1 1 1 65 165 1 50 100;
#X restore 230 308 pd bureau_dimmers;
#X obj 227 504 fruit/send2 bureau;
#X msg 366 477 c 120 c 4 i \$1;
#X obj 366 318 vsl 15 128 0 1 0 0 led_maquette led_maquette led_maquette
0 -9 0 10 -257985 -1 -1 0 1;
#X msg 483 381 c 10 c 0 c \$1;
#X obj 483 359 tgl 15 0 led_phone-s led_phone led_phone 17 7 0 10 -257985
-1 -1 0 1;
#X obj 485 422 tgl 15 0 sonnette-s sonnette sonnette 17 7 0 10 -257985
-1 -1 0 1;
#X obj 452 553 fruit/send2 bureau;
#X obj 488 483 tgl 15 0 danseuse-s danseuse danseuse 17 7 0 10 -257985
-1 -1 0 1;
#N canvas 18 470 450 300 phone 0;
#X obj 127 25 r moment-telephone_lumiere;
#X obj 127 48 tgl 15 0 empty empty empty 17 7 0 10 -262144 -1 -1 0
1;
#X obj 127 77 t f f;
#X obj 127 128 t b b;
#X msg 154 153 1;
#X msg 127 199 0;
#X obj 135 228 tgl 15 0 empty empty empty 17 7 0 10 -262144 -1 -1 0
1;
#X obj 127 103 metro 2600;
#X obj 127 177 del 1000;
#X obj 135 251 s led_phone;
#X obj 234 74 r conduite-RESET;
#X msg 237 97 0;
#X connect 0 0 1 0;
#X connect 1 0 2 0;
#X connect 2 0 7 0;
#X connect 3 0 8 0;
#X connect 3 1 4 0;
#X connect 4 0 6 0;
#X connect 5 0 6 0;
#X connect 6 0 9 0;
#X connect 7 0 3 0;
#X connect 8 0 5 0;
#X connect 10 0 11 0;
#X connect 11 0 1 0;
#X coords 0 -1 1 1 85 40 1 100 25;
#X restore 590 357 pd phone;
#N canvas 808 148 489 296 sonnette 0;
#X obj 125 27 r seq-conduite-line;
#X obj 125 65 route sonnette;
#X obj 125 95 bng 15 250 50 0 empty empty empty 17 7 0 10 -262144 -1
-1;
#X obj 125 117 t b b;
#X msg 152 142 1;
#X msg 125 188 0;
#X obj 133 217 tgl 15 0 empty empty empty 17 7 0 10 -262144 -1 -1 0
1;
#X obj 133 240 s sonnette;
#X msg 210 154 50;
#X msg 250 157 20;
#X msg 220 123 100;
#X msg 215 184 10;
#X msg 261 107 35;
#X obj 125 166 del 30;
#X msg 286 126 30;
#X obj 313 71 f;
#X obj 313 50 route present;
#X obj 313 30 fruit/receive bureau;
#X obj 315 93 sel 1;
#X obj 318 116 del 1000;
#X obj 314 178 fruit/send2 bureau;
#X msg 315 149 c 11 i 15900;
#X connect 0 0 1 0;
#X connect 1 0 2 0;
#X connect 2 0 3 0;
#X connect 3 1 4 0;
#X connect 4 0 6 0;
#X connect 5 0 6 0;
#X connect 6 0 7 0;
#X connect 8 0 13 1;
#X connect 9 0 13 1;
#X connect 10 0 13 1;
#X connect 11 0 13 1;
#X connect 12 0 13 1;
#X connect 13 0 5 0;
#X connect 14 0 13 1;
#X connect 15 0 18 0;
#X connect 16 0 15 0;
#X connect 17 0 16 0;
#X connect 18 0 19 0;
#X connect 19 0 21 0;
#X connect 21 0 20 0;
#X coords 0 -1 1 1 85 40 1 100 75;
#X restore 591 433 pd sonnette;
#N canvas 97 207 450 300 danseuse 0;
#X obj 127 48 tgl 15 0 empty empty empty 17 7 0 10 -262144 -1 -1 0
1;
#X obj 127 77 t f f;
#X obj 127 128 t b b;
#X msg 154 153 1;
#X msg 127 199 0;
#X obj 135 228 tgl 15 0 empty empty empty 17 7 0 10 -262144 -1 -1 0
1;
#X obj 127 25 r moment-danseuse;
#X obj 135 251 s danseuse;
#X obj 127 103 metro 400;
#X floatatom 223 125 5 0 0 0 - - -, f 5;
#X floatatom 216 75 5 0 0 0 - - -, f 5;
#X obj 127 177 del 50;
#X obj 294 24 r conduite-RESET;
#X msg 297 47 0;
#X connect 0 0 1 0;
#X connect 1 0 8 0;
#X connect 2 0 11 0;
#X connect 2 1 3 0;
#X connect 3 0 5 0;
#X connect 4 0 5 0;
#X connect 5 0 7 0;
#X connect 6 0 0 0;
#X connect 8 0 2 0;
#X connect 9 0 11 1;
#X connect 10 0 8 1;
#X connect 11 0 4 0;
#X connect 12 0 13 0;
#X connect 13 0 0 0;
#X coords 0 -1 1 1 85 40 1 100 25;
#X restore 593 498 pd danseuse;
#X obj 135 536 r seq-conduite-line;
#X obj 135 560 route ordi;
#X obj 135 582 spigot 1;
#X obj 204 586 tgl 15 0 empty empty empty 17 7 0 10 -262144 -1 -1 0
1;
#X obj 135 605 s film-play;
#N canvas 151 320 567 435 audio 1;
#X obj 70 15 inlet;
#X obj 119 251 readsf~ 6 1e+06;
#X obj 118 336 dac~ 1 2 3 4 5 6;
#X obj 108 287 *~;
#X obj 145 286 *~;
#X obj 171 286 *~;
#X obj 197 286 *~;
#X obj 222 286 *~;
#X obj 248 286 *~;
#X obj 297 239 +~;
#X obj 345 183 hsl 128 15 0 1 0 1 empty MASTER_VOL empty -2 -8 0 10
-262144 -1 -1 12700 1;
#X msg 68 106 0;
#X obj 316 121 r conduite-RELOAD;
#X obj 143 167 del 100;
#X msg 132 222 1;
#X obj 167 70 bng 15 250 50 0 empty empty empty 17 7 0 10 -262144 -1
-1;
#X obj 62 72 route stop;
#X obj 343 210 pow 2;
#X obj 168 10 r conduite-playAt;
#X obj 306 13 r conduite-STOP;
#X msg 307 37 stop;
#X obj 113 147 t f b;
#X msg 115 185 open /home/pi/Music/son.wav \$1;
#X floatatom 201 118 5 0 0 0 - - -, f 5;
#X obj 167 37 + 0.1;
#X msg 72 37 0.1;
#X obj 113 111 * 48000;
#X connect 0 0 25 0;
#X connect 1 0 3 0;
#X connect 1 1 4 0;
#X connect 1 2 5 0;
#X connect 1 3 6 0;
#X connect 1 4 7 0;
#X connect 1 5 8 0;
#X connect 3 0 2 0;
#X connect 4 0 2 1;
#X connect 5 0 2 2;
#X connect 6 0 2 3;
#X connect 7 0 2 4;
#X connect 8 0 2 5;
#X connect 9 0 3 1;
#X connect 9 0 4 1;
#X connect 9 0 5 1;
#X connect 9 0 6 1;
#X connect 9 0 7 1;
#X connect 9 0 8 1;
#X connect 10 0 17 0;
#X connect 11 0 1 0;
#X connect 13 0 14 0;
#X connect 14 0 1 0;
#X connect 15 0 21 0;
#X connect 16 0 11 0;
#X connect 16 1 26 0;
#X connect 17 0 9 0;
#X connect 18 0 24 0;
#X connect 19 0 20 0;
#X connect 20 0 16 0;
#X connect 21 0 22 0;
#X connect 21 1 13 0;
#X connect 22 0 1 0;
#X connect 24 0 16 0;
#X connect 25 0 16 0;
#X connect 26 0 21 0;
#X connect 26 0 23 0;
#X restore 19 603 pd audio;
#X obj 596 114 bng 15 250 50 0 empty empty reload 17 7 0 10 -128992
-1 -1;
#N canvas 0 154 744 378 ramps&moments 1;
#X obj 56 44 seq/ramp conduite lumiere_bureau;
#X obj 57 268 seq/moment conduite telephone_lumiere;
#X obj 57 290 seq/moment conduite danseuse;
#X obj 57 86 seq/ramp conduite lumiere_plante_1;
#X obj 57 106 seq/ramp conduite lumiere_plante_2;
#X obj 57 126 seq/ramp conduite lumiere_plante_3;
#X obj 57 146 seq/ramp conduite lumiere_plante_4;
#X obj 57 166 seq/ramp conduite lumiere_plante_5;
#X obj 315 86 seq/alias conduite lumieres_plantes lumiere_plante_1
;
#X obj 314 107 seq/alias conduite lumieres_plantes lumiere_plante_2
;
#X obj 60 242 seq/ramp conduite sapin;
#X obj 60 223 seq/ramp conduite guirlande;
#X obj 315 165 seq/alias conduite lumieres_plantes lumiere_plante_5
;
#X obj 315 146 seq/alias conduite lumieres_plantes lumiere_plante_4
;
#X obj 292 43 seq/ramp conduite maquette;
#X restore 27 518 pd ramps&moments;
#X obj 542 32 r seq-conduite-line;
#X obj 542 59 route recommence;
#X msg 407 70 stop;
#X obj 451 30 r AUTOSTART;
#X obj 451 97 del 2000;
#X obj 366 453 * 1023;
#X msg 488 505 c 10 c 2 c \$1;
#X msg 485 444 c 10 c 1 c 1;
#X floatatom 485 596 5 0 0 0 - - -, f 5;
#X msg 483 620 c 11 i \$1;
#X floatatom 535 583 5 0 0 0 - - -, f 5;
#X obj 395 378 metro 200;
#X obj 403 337 tgl 15 0 empty empty empty 17 7 0 10 -262144 -1 -1 0
1;
#X obj 535 602 * 100;
#X floatatom 439 348 5 0 0 0 - - -, f 5;
#X obj 562 300 bng 15 250 50 0 conduite-RESET empty conduite-RESET
17 7 0 10 -262144 -1 -1;
#N canvas 383 551 450 300 print 0;
#X obj 151 235 system;
#X obj 149 139 getdir;
#X obj 149 33 r seq-conduite-line;
#X obj 149 71 route imprime;
#X obj 149 114 t b s;
#X obj 149 93 symbol;
#X obj 149 161 pack s s;
#X msg 275 77 imprime lachambre;
#X obj 263 248 print;
#X msg 149 188 nohup cat \$1/\$2.txt > /dev/usb/lp0 &;
#X connect 1 0 6 0;
#X connect 2 0 3 0;
#X connect 3 0 5 0;
#X connect 4 0 1 0;
#X connect 4 1 6 1;
#X connect 5 0 4 0;
#X connect 6 0 9 0;
#X connect 7 0 3 0;
#X connect 9 0 0 0;
#X restore 600 573 pd print;
#X obj 720 270 vsl 40 300 0 1 0 1 MASTER_VOL empty MASTER_VOL 0 -14
0 14 -258113 -1 -1 29900 1;
#X floatatom 720 582 5 0 0 0 - - -, f 5;
#X obj 269 574 r conduite-RESET;
#X msg 269 596 stop;
#X msg 738 65 \; pd dsp 1;
#X obj 737 33 loadbang;
#X obj 254 238 fruit/send grada6;
#X obj 21 120 loadbang;
#X msg 90 118 0;
#X connect 2 0 3 0;
#X connect 3 0 71 0;
#X connect 4 0 5 0;
#X connect 5 0 6 0;
#X connect 8 0 4 0;
#X connect 10 0 71 1;
#X connect 11 0 10 0;
#X connect 12 0 13 0;
#X connect 13 0 14 0;
#X connect 15 0 12 0;
#X connect 16 0 22 0;
#X connect 16 1 17 0;
#X connect 16 2 18 0;
#X connect 16 3 19 0;
#X connect 20 0 16 0;
#X connect 21 0 16 1;
#X connect 23 0 16 2;
#X connect 25 0 24 0;
#X connect 25 0 45 0;
#X connect 27 0 29 0;
#X connect 28 0 27 0;
#X connect 30 0 29 0;
#X connect 31 0 53 0;
#X connect 32 0 35 0;
#X connect 33 0 32 0;
#X connect 34 0 55 0;
#X connect 36 0 54 0;
#X connect 40 0 41 0;
#X connect 41 0 42 0;
#X connect 42 0 44 0;
#X connect 43 0 42 1;
#X connect 46 0 16 3;
#X connect 48 0 49 0;
#X connect 49 0 20 0;
#X connect 50 0 52 0;
#X connect 51 0 52 0;
#X connect 52 0 20 0;
#X connect 53 0 30 0;
#X connect 54 0 35 0;
#X connect 55 0 35 0;
#X connect 56 0 57 0;
#X connect 57 0 35 0;
#X connect 58 0 61 0;
#X connect 59 0 55 0;
#X connect 60 0 59 0;
#X connect 61 0 56 0;
#X connect 62 0 59 1;
#X connect 65 0 66 0;
#X connect 67 0 68 0;
#X connect 68 0 24 0;
#X connect 68 0 45 0;
#X connect 70 0 69 0;
#X connect 72 0 73 0;
#X connect 73 0 7 0;
