#N canvas 602 193 721 679 10;
#X declare -stdpath moonlib;
#X declare -stdpath hcs;
#X declare -stdpath ggee;
#X declare -stdpath zexy;
#X declare -lib zexy;
#X declare -stdpath Fraise;
#X obj 21 38 pied/pied 0 41424;
#X obj 21 17 declare -stdpath Fraise;
#N canvas 124 187 698 309 dimmers 0;
#X obj 54 132 vsl 15 128 0 1 0 0 dimmer1 dimmer1 1 0 -9 0 10 -257985
-1 -1 0 1;
#X obj 70 132 vsl 15 128 0 1 0 0 dimmer2 dimmer2 2 0 -9 0 10 -257985
-1 -1 0 1;
#X obj 86 132 vsl 15 128 0 1 0 0 dimmer3 dimmer3 3 0 -9 0 10 -257985
-1 -1 0 1;
#X obj 102 132 vsl 15 128 0 1 0 0 dimmer4 dimmer4 4 0 -9 0 10 -257985
-1 -1 0 1;
#X obj 199 90 r dimmer1;
#X obj 199 112 * 65535;
#X msg 199 135 0 \$1;
#X obj 260 112 * 65535;
#X obj 324 112 * 65535;
#X obj 385 112 * 65535;
#X obj 260 90 r dimmer2;
#X msg 260 135 1 \$1;
#X msg 324 135 2 \$1;
#X obj 324 90 r dimmer3;
#X msg 385 135 3 \$1;
#X obj 385 90 r dimmer4;
#X obj 276 205 outlet;
#X obj 118 132 vsl 15 128 0 1 0 0 dimmer5 dimmer5 5 0 -9 0 10 -257985
-1 -1 0 1;
#X obj 134 132 vsl 15 128 0 1 0 0 dimmer6 dimmer6 6 0 -9 0 10 -257985
-1 -1 0 1;
#X obj 450 112 * 65535;
#X obj 511 112 * 65535;
#X obj 450 90 r dimmer5;
#X obj 511 90 r dimmer6;
#X msg 450 135 4 \$1;
#X msg 511 135 5 \$1;
#X obj 575 113 * 65535;
#X obj 575 91 r dimmer7;
#X msg 575 136 6 \$1;
#X obj 150 132 vsl 15 128 0 1 0 0 dimmer7 dimmer7 7 0 -9 0 10 -257985
-1 -1 0 1;
#X connect 4 0 5 0;
#X connect 5 0 6 0;
#X connect 6 0 16 0;
#X connect 7 0 11 0;
#X connect 8 0 12 0;
#X connect 9 0 14 0;
#X connect 10 0 7 0;
#X connect 11 0 16 0;
#X connect 12 0 16 0;
#X connect 13 0 8 0;
#X connect 14 0 16 0;
#X connect 15 0 9 0;
#X connect 19 0 23 0;
#X connect 20 0 24 0;
#X connect 21 0 19 0;
#X connect 22 0 20 0;
#X connect 23 0 16 0;
#X connect 24 0 16 0;
#X connect 25 0 27 0;
#X connect 26 0 25 0;
#X connect 27 0 16 0;
#X coords 0 -1 1 1 125 165 1 50 100;
#X restore 254 42 pd dimmers;
#X msg 254 216 c 40 c \$1 i \$2;
#X obj 22 229 route s;
#X obj 22 251 route 0;
#X obj 22 279 tgl 15 0 empty empty empty 17 7 0 10 -262144 -1 -1 0
1;
#X obj 19 141 fruit/fruit 1 grada6 11 grada6;
#X obj 22 207 fruit/receive grada6;
#X obj 254 238 fruit/send2 grada6;
#X obj 23 333 fruit/fruit 1 bureau 12 bureau;
#X msg 390 217 L\$1;
#X obj 390 196 tgl 15 0 empty empty empty 17 7 0 10 -262144 -1 -1 0
1;
#X obj 23 410 route s;
#X obj 23 432 route 0;
#X obj 23 460 tgl 15 0 empty empty empty 17 7 0 10 -262144 -1 -1 0
1;
#X obj 23 388 fruit/receive bureau;
#X obj 475 150 seq/main conduite;
#X floatatom 531 179 5 0 0 3 mn - -, f 5;
#X floatatom 587 177 5 0 0 3 sec - -, f 5;
#X floatatom 645 178 5 0 0 3 frame - -, f 5;
#X obj 451 127 bng 15 250 50 0 empty empty go 17 7 0 10 -4034 -1 -1
;
#X obj 494 126 bng 15 250 50 0 empty empty stop 17 7 0 10 -258113 -1
-1;
#X floatatom 458 177 5 0 0 3 line - -, f 5;
#X obj 542 125 bng 15 250 50 0 empty empty next 17 7 0 10 -257985 -1
-1;
#X obj 31 575 omxplayer;
#X obj 26 552 r film-play;
#N canvas 1 124 450 300 dimmers-assign 1;
#X obj 68 28 r ramp-lampe_plante_1;
#X obj 68 50 s dimmer1;
#X obj 67 72 r ramp-lampe_plante_2;
#X obj 67 94 s dimmer2;
#X obj 68 118 r ramp-lampe_plante_3;
#X obj 68 140 s dimmer3;
#X obj 67 162 r ramp-lampe_plante_4;
#X obj 67 184 s dimmer4;
#X obj 279 28 r ramp-lumiere_bureau;
#X obj 279 50 s bdimmer1;
#X connect 0 0 1 0;
#X connect 2 0 3 0;
#X connect 4 0 5 0;
#X connect 6 0 7 0;
#X connect 8 0 9 0;
#X restore 27 498 pd dimmers-assign;
#X msg 227 482 c 40 c \$1 i \$2;
#N canvas 122 192 698 309 bureau_dimmers 0;
#X obj 54 132 vsl 15 128 0 1 0 0 bdimmer1 bdimmer1 1 0 -9 0 10 -257985
-1 -1 0 1;
#X obj 70 132 vsl 15 128 0 1 0 0 bdimmer2 bdimmer2 2 0 -9 0 10 -257985
-1 -1 0 1;
#X obj 238 114 * 65535;
#X msg 238 137 0 \$1;
#X obj 306 114 * 65535;
#X msg 306 137 1 \$1;
#X obj 276 205 outlet;
#X obj 238 92 r bdimmer1;
#X obj 306 92 r bdimmer2;
#X connect 2 0 3 0;
#X connect 3 0 6 0;
#X connect 4 0 5 0;
#X connect 5 0 6 0;
#X connect 7 0 2 0;
#X connect 8 0 4 0;
#X coords 0 -1 1 1 65 165 1 50 100;
#X restore 227 308 pd bureau_dimmers;
#X obj 227 504 fruit/send2 bureau;
#X msg 366 477 c 120 c 4 i \$1;
#X obj 366 318 vsl 15 128 0 1 0 0 led_maquette led_maquette led_maquette
0 -9 0 10 -257985 -1 -1 0 1;
#X obj 366 454 * 1023;
#X msg 483 381 c 10 c 0 c \$1;
#X obj 483 359 tgl 15 0 led_phone led_phone led_phone 17 7 0 10 -257985
-1 -1 0 1;
#X obj 485 422 tgl 15 0 sonnette sonnette sonnette 17 7 0 10 -257985
-1 -1 0 1;
#X msg 485 444 c 10 c 1 c \$1;
#X obj 452 553 fruit/send2 bureau;
#X obj 488 483 tgl 15 0 danseuse danseuse danseuse 17 7 0 10 -257985
-1 -1 0 1;
#X msg 488 505 c 10 c 1 c \$1;
#N canvas 25 466 450 300 phone 0;
#X obj 127 25 r moment-telephone_lumiere;
#X obj 127 48 tgl 15 0 empty empty empty 17 7 0 10 -262144 -1 -1 0
1;
#X obj 127 77 t f f;
#X obj 127 128 t b b;
#X msg 154 153 1;
#X msg 127 199 0;
#X obj 135 228 tgl 15 0 empty empty empty 17 7 0 10 -262144 -1 -1 0
1;
#X obj 127 103 metro 2600;
#X obj 127 177 del 1000;
#X obj 135 251 s led_phone;
#X connect 0 0 1 0;
#X connect 1 0 2 0;
#X connect 2 0 7 0;
#X connect 3 0 8 0;
#X connect 3 1 4 0;
#X connect 4 0 6 0;
#X connect 5 0 6 0;
#X connect 6 0 9 0;
#X connect 7 0 3 0;
#X connect 8 0 5 0;
#X restore 590 357 pd phone;
#N canvas 102 207 450 300 sonnette 0;
#X obj 96 28 r seq-conduite-line;
#X obj 96 66 route sonnette;
#X obj 96 96 bng 15 250 50 0 empty empty empty 17 7 0 10 -262144 -1
-1;
#X obj 96 118 t b b;
#X msg 123 143 1;
#X msg 96 189 0;
#X obj 104 218 tgl 15 0 empty empty empty 17 7 0 10 -262144 -1 -1 0
1;
#X obj 104 241 s sonnette;
#X obj 96 167 del 20;
#X connect 0 0 1 0;
#X connect 1 0 2 0;
#X connect 2 0 3 0;
#X connect 3 0 8 0;
#X connect 3 1 4 0;
#X connect 4 0 6 0;
#X connect 5 0 6 0;
#X connect 6 0 7 0;
#X connect 8 0 5 0;
#X restore 591 433 pd sonnette;
#N canvas 104 201 450 300 danseuse 0;
#X obj 127 48 tgl 15 0 empty empty empty 17 7 0 10 -262144 -1 -1 0
1;
#X obj 127 77 t f f;
#X obj 127 128 t b b;
#X msg 154 153 1;
#X msg 127 199 0;
#X obj 135 228 tgl 15 0 empty empty empty 17 7 0 10 -262144 -1 -1 0
1;
#X obj 127 25 r moment-danseuse;
#X obj 135 251 s danseuse;
#X obj 127 103 metro 400;
#X obj 127 177 del 100;
#X connect 0 0 1 0;
#X connect 1 0 8 0;
#X connect 2 0 9 0;
#X connect 2 1 3 0;
#X connect 3 0 5 0;
#X connect 4 0 5 0;
#X connect 5 0 7 0;
#X connect 6 0 0 0;
#X connect 8 0 2 0;
#X connect 9 0 4 0;
#X restore 593 498 pd danseuse;
#X obj 135 536 r seq-conduite-line;
#X obj 135 560 route ordi;
#X obj 135 582 spigot 1;
#X obj 204 586 tgl 15 0 empty empty empty 17 7 0 10 -262144 -1 -1 0
1;
#X obj 135 605 s film-play;
#N canvas 1 82 450 300 audio 0;
#X obj 117 15 inlet;
#X obj 116 123 readsf~ 6 1e+06;
#X msg 116 90 open ../sound/bell.aiff;
#X obj 115 208 dac~ 1 2 3 4 5 6;
#X obj 116 158 *~;
#X obj 142 158 *~;
#X obj 168 158 *~;
#X obj 194 158 *~;
#X obj 219 158 *~;
#X obj 245 158 *~;
#X obj 294 111 +~;
#X obj 297 86 hsl 128 15 0 1 0 1 empty empty empty -2 -8 0 10 -262144
-1 -1 9700 1;
#X connect 1 0 4 0;
#X connect 1 1 5 0;
#X connect 1 2 6 0;
#X connect 1 3 7 0;
#X connect 1 4 8 0;
#X connect 1 5 9 0;
#X connect 2 0 1 0;
#X connect 4 0 3 0;
#X connect 5 0 3 1;
#X connect 6 0 3 2;
#X connect 7 0 3 3;
#X connect 8 0 3 4;
#X connect 9 0 3 5;
#X connect 10 0 4 1;
#X connect 10 0 5 1;
#X connect 10 0 6 1;
#X connect 10 0 7 1;
#X connect 10 0 8 1;
#X connect 10 0 9 1;
#X connect 11 0 10 0;
#X restore 19 603 pd audio;
#X obj 599 122 bng 15 250 50 0 empty empty reload 17 7 0 10 -128992
-1 -1;
#N canvas 1 134 662 287 ramps&moments 1;
#X obj 50 63 seq/ramp conduite lumiere_bureau;
#X obj 291 92 seq/alias conduite lumieres_plantes lampe_plante_1;
#X obj 50 93 seq/ramp conduite lampe_plante_1;
#X obj 50 113 seq/ramp conduite lampe_plante_2;
#X obj 50 133 seq/ramp conduite lampe_plante_3;
#X obj 50 153 seq/ramp conduite lampe_plante_4;
#X obj 291 113 seq/alias conduite lumieres_plantes lampe_plante_2;
#X obj 291 132 seq/alias conduite lumieres_plantes lampe_plante_3;
#X obj 291 153 seq/alias conduite lumieres_plantes lampe_plante_4;
#X obj 50 191 seq/moment conduite telephone_lumiere;
#X obj 50 213 seq/moment conduite danseuse;
#X restore 27 518 pd ramps&moments;
#X obj 542 32 r seq-conduite-line;
#X obj 542 59 route recommence;
#X msg 407 70 stop;
#X obj 451 30 r AUTOSTART;
#X obj 451 97 del 2000;
#X connect 2 0 3 0;
#X connect 3 0 9 0;
#X connect 4 0 5 0;
#X connect 5 0 6 0;
#X connect 8 0 4 0;
#X connect 11 0 9 1;
#X connect 12 0 11 0;
#X connect 13 0 14 0;
#X connect 14 0 15 0;
#X connect 16 0 13 0;
#X connect 17 0 23 0;
#X connect 17 1 18 0;
#X connect 17 2 19 0;
#X connect 17 3 20 0;
#X connect 21 0 17 0;
#X connect 22 0 17 1;
#X connect 24 0 17 2;
#X connect 26 0 25 0;
#X connect 26 0 49 0;
#X connect 28 0 30 0;
#X connect 29 0 28 0;
#X connect 31 0 30 0;
#X connect 32 0 33 0;
#X connect 33 0 31 0;
#X connect 34 0 38 0;
#X connect 35 0 34 0;
#X connect 36 0 37 0;
#X connect 37 0 38 0;
#X connect 39 0 40 0;
#X connect 40 0 38 0;
#X connect 44 0 45 0;
#X connect 45 0 46 0;
#X connect 46 0 48 0;
#X connect 47 0 46 1;
#X connect 50 0 17 3;
#X connect 52 0 53 0;
#X connect 53 0 21 0;
#X connect 54 0 56 0;
#X connect 55 0 56 0;
#X connect 56 0 21 0;
