#N canvas 553 132 883 736 10;
#X declare -stdpath moonlib;
#X declare -stdpath hcs;
#X declare -stdpath ggee;
#X declare -stdpath zexy;
#X declare -lib zexy;
#X declare -stdpath Fraise;
#X obj 21 38 pied/pied 0 41424;
#X obj 21 17 declare -stdpath Fraise;
#N canvas 132 165 616 305 dimmers 0;
#X obj 54 132 vsl 15 128 0 1 0 0 dimmer1 dimmer1 1 0 -9 0 10 -262144
-1 -1 800 1;
#X obj 70 132 vsl 15 128 0 1 0 0 dimmer2 dimmer2 2 0 -9 0 10 -262144
-1 -1 4900 1;
#X obj 86 132 vsl 15 128 0 1 0 0 dimmer3 dimmer3 3 0 -9 0 10 -262144
-1 -1 4100 1;
#X obj 102 132 vsl 15 128 0 1 0 0 dimmer4 dimmer4 4 0 -9 0 10 -262144
-1 -1 5300 1;
#X obj 159 128 r dimmer1;
#X obj 159 150 * 65535;
#X msg 159 173 0 \$1;
#X obj 220 150 * 65535;
#X obj 284 150 * 65535;
#X obj 345 150 * 65535;
#X obj 220 128 r dimmer2;
#X msg 220 173 1 \$1;
#X msg 284 173 2 \$1;
#X obj 284 128 r dimmer3;
#X msg 345 173 3 \$1;
#X obj 345 128 r dimmer4;
#X obj 236 243 outlet;
#X obj 118 132 vsl 15 128 0 1 0 0 dimmer5 dimmer5 5 0 -9 0 10 -262144
-1 -1 0 1;
#X obj 134 132 vsl 15 128 0 1 0 0 dimmer6 dimmer6 6 0 -9 0 10 -262144
-1 -1 0 1;
#X obj 410 150 * 65535;
#X obj 471 150 * 65535;
#X obj 410 128 r dimmer5;
#X obj 471 128 r dimmer6;
#X msg 410 173 4 \$1;
#X msg 471 173 5 \$1;
#X connect 4 0 5 0;
#X connect 5 0 6 0;
#X connect 6 0 16 0;
#X connect 7 0 11 0;
#X connect 8 0 12 0;
#X connect 9 0 14 0;
#X connect 10 0 7 0;
#X connect 11 0 16 0;
#X connect 12 0 16 0;
#X connect 13 0 8 0;
#X connect 14 0 16 0;
#X connect 15 0 9 0;
#X connect 19 0 23 0;
#X connect 20 0 24 0;
#X connect 21 0 19 0;
#X connect 22 0 20 0;
#X connect 23 0 16 0;
#X connect 24 0 16 0;
#X coords 0 -1 1 1 105 165 1 50 100;
#X restore 254 42 pd dimmers;
#X msg 254 216 c 40 c \$1 i \$2;
#X obj 22 229 route s;
#X obj 22 251 route 0;
#X obj 22 279 tgl 15 0 empty empty empty 17 7 0 10 -262144 -1 -1 0
1;
#X obj 19 141 fruit/fruit 1 grada6 11 grada6;
#X obj 22 207 fruit/receive grada6;
#X obj 254 280 fruit/send2 grada6;
#X obj 23 333 fruit/fruit 1 bureau 12 bureau;
#X msg 378 225 L\$1;
#X obj 378 204 tgl 15 0 empty empty empty 17 7 0 10 -262144 -1 -1 0
1;
#X obj 23 410 route s;
#X obj 23 432 route 0;
#X obj 23 460 tgl 15 0 empty empty empty 17 7 0 10 -262144 -1 -1 0
1;
#X obj 23 388 fruit/receive bureau;
#X connect 2 0 3 0;
#X connect 3 0 9 0;
#X connect 4 0 5 0;
#X connect 5 0 6 0;
#X connect 8 0 4 0;
#X connect 11 0 9 1;
#X connect 12 0 11 0;
#X connect 13 0 14 0;
#X connect 14 0 15 0;
#X connect 16 0 13 0;
