#N canvas 1 115 642 413 10;
#X obj 397 74 keyname;
#X obj 434 184 bng 15 250 50 0 empty empty empty 17 7 0 10 -262144
-1 -1;
#X obj 397 98 pack f s;
#X obj 397 120 route 1;
#X obj 397 144 route F11;
#X msg 293 351 xset dpms force standby;
#X obj 87 176 del 2000;
#N canvas 1 112 450 300 \$0-getkey 0;
#X obj 179 120 bng 15 250 50 0 \$0-stop-reopen empty stop-reopen 17
7 0 10 -4034 -1 -1;
#X restore 538 259 pd \$0-getkey;
#X obj 496 309 metro 3000;
#X obj 496 360 s pd-\$0-getkey;
#X msg 87 68 /home/pi/Videos/instal3-DV2-h264.avi;
#X obj 87 106 symbol;
#X obj 87 128 t b s;
#X msg 130 371 omxplayer /home/pi/Videos/instal3-DV2-h264.avi;
#X msg 421 278 1;
#X obj 397 181 b;
#X msg 456 278 0;
#X obj 464 203 r \$0-stop-reopen;
#X msg 452 331 vis 0;
#X obj 86 41 inlet;
#X msg 496 332 vis 0 \, vis 1;
#X obj 119 350 motex/system;
#X msg 87 200 xset dpms force standby &;
#X msg 168 300 killall omxplayer.bin &;
#X msg 119 154 nohup omxplayer -b \$1 > /tmp/nohup.out &;
#X connect 0 0 2 0;
#X connect 0 1 2 1;
#X connect 2 0 3 0;
#X connect 3 0 4 0;
#X connect 4 0 1 0;
#X connect 4 0 15 0;
#X connect 6 0 22 0;
#X connect 6 0 14 0;
#X connect 8 0 20 0;
#X connect 10 0 11 0;
#X connect 11 0 12 0;
#X connect 12 0 6 0;
#X connect 12 1 24 0;
#X connect 14 0 8 0;
#X connect 15 0 23 0;
#X connect 15 0 16 0;
#X connect 16 0 8 0;
#X connect 16 0 18 0;
#X connect 17 0 16 0;
#X connect 18 0 9 0;
#X connect 19 0 10 0;
#X connect 20 0 9 0;
#X connect 22 0 21 0;
#X connect 23 0 21 0;
#X connect 24 0 21 0;
