#N canvas 86 133 642 413 10;
#X obj 397 74 keyname;
#X obj 434 184 bng 15 250 50 0 empty empty empty 17 7 0 10 -262144
-1 -1;
#X obj 397 98 pack f s;
#X obj 397 120 route 1;
#X obj 397 144 route F11;
#X msg 293 351 xset dpms force standby;
#X obj 87 176 del 2000;
#N canvas 0 54 450 300 \$0-getkey 0;
#X obj 179 120 bng 80 250 50 0 \$0-stop-reopen empty stop-reopen 17
-15 0 15 -4034 -1 -1;
#X restore 538 259 pd \$0-getkey;
#X obj 496 360 s pd-\$0-getkey;
#X obj 87 106 symbol;
#X msg 130 371 omxplayer /home/pi/Videos/instal3-DV2-h264.avi;
#X msg 421 278 1;
#X obj 397 181 b;
#X msg 456 278 0;
#X obj 464 203 r \$0-stop-reopen;
#X msg 452 331 vis 0;
#X obj 34 11 inlet;
#X msg 496 332 vis 0 \, vis 1;
#X obj 119 350 motex/system;
#X msg 87 200 xset dpms force standby &;
#X msg 168 300 killall omxplayer.bin &;
#X msg 119 154 nohup omxplayer -b \$1 > /tmp/nohup.out &;
#X obj 87 128 t b s b;
#X msg 87 67 /home/pi/Videos/video.mov;
#X obj 25 36 route stop;
#X obj 496 309 metro 10000;
#X connect 0 0 2 0;
#X connect 0 1 2 1;
#X connect 2 0 3 0;
#X connect 3 0 4 0;
#X connect 4 0 1 0;
#X connect 4 0 12 0;
#X connect 6 0 19 0;
#X connect 6 0 11 0;
#X connect 9 0 22 0;
#X connect 11 0 25 0;
#X connect 12 0 20 0;
#X connect 12 0 13 0;
#X connect 13 0 15 0;
#X connect 13 0 25 0;
#X connect 14 0 13 0;
#X connect 15 0 8 0;
#X connect 16 0 24 0;
#X connect 17 0 8 0;
#X connect 19 0 18 0;
#X connect 20 0 18 0;
#X connect 21 0 18 0;
#X connect 22 0 6 0;
#X connect 22 1 21 0;
#X connect 22 2 20 0;
#X connect 23 0 9 0;
#X connect 24 0 12 0;
#X connect 24 1 23 0;
#X connect 25 0 17 0;
