#N canvas 196 212 642 413 10;
#X obj 119 350 ggee/shell;
#X msg 171 300 killall omxplayer.bin;
#X obj 347 97 keyname;
#X obj 384 207 bng 15 250 50 0 empty empty empty 17 7 0 10 -262144
-1 -1;
#X obj 347 121 pack f s;
#X obj 347 143 route 1;
#X obj 347 167 route F11;
#X msg 87 200 xset dpms force standby;
#X msg 293 351 xset dpms force standby;
#X obj 87 176 del 2000;
#N canvas 1 106 450 300 \$0-getkey 0;
#X obj 179 120 bng 15 250 50 0 \$0-stop-reopen empty stop-reopen 17
7 0 10 -4034 -1 -1;
#X restore 538 259 pd \$0-getkey;
#X obj 496 309 metro 3000;
#X obj 496 360 s pd-\$0-getkey;
#X msg 87 68 /home/pi/Videos/instal3-DV2-h264.avi;
#X obj 87 106 symbol;
#X obj 87 128 t b s;
#X msg 130 371 omxplayer /home/pi/Videos/instal3-DV2-h264.avi;
#X msg 119 154 omxplayer \$1;
#X msg 421 278 1;
#X obj 347 204 b;
#X msg 456 278 0;
#X obj 464 203 r \$0-stop-reopen;
#X msg 452 331 vis 0;
#X obj 86 41 inlet;
#X msg 496 332 vis 0 \, vis 1;
#X connect 1 0 0 0;
#X connect 2 0 4 0;
#X connect 2 1 4 1;
#X connect 4 0 5 0;
#X connect 5 0 6 0;
#X connect 6 0 3 0;
#X connect 6 0 19 0;
#X connect 7 0 0 0;
#X connect 9 0 7 0;
#X connect 9 0 18 0;
#X connect 11 0 24 0;
#X connect 13 0 14 0;
#X connect 14 0 15 0;
#X connect 15 0 9 0;
#X connect 15 1 17 0;
#X connect 17 0 0 0;
#X connect 18 0 11 0;
#X connect 19 0 1 0;
#X connect 19 0 20 0;
#X connect 20 0 11 0;
#X connect 20 0 22 0;
#X connect 21 0 20 0;
#X connect 22 0 12 0;
#X connect 23 0 13 0;
#X connect 24 0 12 0;
